<svg xmlns="http://www.w3.org/2000/svg" width="71.972" height="63.372" viewBox="0 0 71.972 63.372">
  <defs>
    <style>
      .cls-1 {
        fill: #fff;
      }
    </style>
  </defs>
  <g id="Speech_Bubble_48_" transform="translate(0 -30.536)">
    <g id="Group_1" data-name="Group 1" transform="translate(0 30.536)">
      <path id="Path_5" data-name="Path 5" class="cls-1" d="M10.476,93.908h-5.1L8.982,90.3a12.2,12.2,0,0,0,3.485-7.217A27.484,27.484,0,0,1,1.7,70.35,24.94,24.94,0,0,1,.976,54.369,31.287,31.287,0,0,1,12.964,37.632a39.172,39.172,0,0,1,23.142-7.1c10.974,0,20.224,3.153,26.75,9.118a27.37,27.37,0,0,1,6.826,31.353,28.153,28.153,0,0,1-6.843,9.522C56.3,86.517,47.06,89.683,36.106,89.683a48.641,48.641,0,0,1-12.1-1.539,18.9,18.9,0,0,1-13.531,5.764Zm25.63-59.147C18.638,34.761,7.92,45.178,5.046,55.5,2.33,65.259,6.334,74.478,15.755,80.163l1.053.635-.032,1.229a16.635,16.635,0,0,1-1.682,6.894,14.965,14.965,0,0,0,6.617-4.528l.893-1.055,1.324.4a43.7,43.7,0,0,0,12.178,1.724c21.74,0,31.641-13.163,31.641-25.394a23.233,23.233,0,0,0-7.742-17.292c-5.733-5.241-14-8.011-23.9-8.011Z" transform="translate(0 -30.536)"/>
    </g>
  </g>
</svg>
