<svg xmlns="http://www.w3.org/2000/svg" xmlns:xlink="http://www.w3.org/1999/xlink" width="108" height="68" viewBox="0 0 108 68">
  <defs>
    <style>
      .cls-1, .cls-3 {
        fill: #fff;
      }

      .cls-1 {
        stroke: #707070;
      }

      .cls-2 {
        clip-path: url(#clip-path);
      }
    </style>
    <clipPath id="clip-path">
      <rect id="Rectangle_9" data-name="Rectangle 9" class="cls-1" width="108" height="68" transform="translate(460 281.671)"/>
    </clipPath>
  </defs>
  <g id="Mask_Group_1" data-name="Mask Group 1" class="cls-2" transform="translate(-460 -281.671)">
    <path id="heart" class="cls-3" d="M38.152,67.78a4.478,4.478,0,0,1-2.95-1.107c-3.082-2.691-6.054-5.22-8.676-7.451l-.013-.012C18.825,52.67,12.187,47.021,7.568,41.457,2.4,35.237,0,29.339,0,22.9A23.79,23.79,0,0,1,6.053,6.633,20.533,20.533,0,0,1,21.316,0,19.212,19.212,0,0,1,33.3,4.132a24.507,24.507,0,0,1,4.847,5.053A24.509,24.509,0,0,1,43,4.132,19.212,19.212,0,0,1,54.988,0,20.534,20.534,0,0,1,70.251,6.633,23.79,23.79,0,0,1,76.3,22.9c0,6.443-2.4,12.341-7.567,18.561C64.117,47.021,57.48,52.669,49.794,59.21c-2.627,2.234-5.6,4.767-8.693,7.465a4.482,4.482,0,0,1-2.949,1.106ZM21.316,4.463a16.109,16.109,0,0,0-11.977,5.2A19.352,19.352,0,0,0,4.469,22.9c0,5.419,2.017,10.265,6.54,15.714,4.371,5.267,10.873,10.8,18.4,17.2l.014.012c2.632,2.24,5.615,4.778,8.721,7.489,3.124-2.716,6.112-5.259,8.749-7.5,7.528-6.406,14.029-11.937,18.4-17.2,4.522-5.449,6.539-10.295,6.539-15.714a19.352,19.352,0,0,0-4.87-13.238,16.108,16.108,0,0,0-11.977-5.2,14.839,14.839,0,0,0-9.255,3.2,21.665,21.665,0,0,0-5.158,5.959,2.824,2.824,0,0,1-4.847,0A21.644,21.644,0,0,0,30.57,7.662a14.838,14.838,0,0,0-9.254-3.2Zm0,0" transform="translate(475.493 281.891)"/>
  </g>
</svg>
