<svg id="plus" xmlns="http://www.w3.org/2000/svg" width="101.027" height="101.027" viewBox="0 0 101.027 101.027">
  <defs>
    <style>
      .cls-1 {
        fill: #fff;
      }
    </style>
  </defs>
  <path id="Path_2" data-name="Path 2" class="cls-1" d="M50.514,101.027a50.514,50.514,0,1,1,50.514-50.514A50.57,50.57,0,0,1,50.514,101.027Zm0-94.713a44.2,44.2,0,1,0,44.2,44.2A44.248,44.248,0,0,0,50.514,6.314Zm0,0"/>
  <path id="Path_3" data-name="Path 3" class="cls-1" d="M175.357,246.314h-44.2a3.157,3.157,0,0,1,0-6.314h44.2a3.157,3.157,0,0,1,0,6.314Zm0,0" transform="translate(-102.743 -192.643)"/>
  <path id="Path_4" data-name="Path 4" class="cls-1" d="M243.157,178.514A3.158,3.158,0,0,1,240,175.357v-44.2a3.157,3.157,0,0,1,6.314,0v44.2A3.158,3.158,0,0,1,243.157,178.514Zm0,0" transform="translate(-192.643 -102.743)"/>
</svg>
