<svg xmlns="http://www.w3.org/2000/svg" width="68.216" height="68.216" viewBox="0 0 68.216 68.216">
  <defs>
    <style>
      .cls-1 {
        fill: #fff;
      }
    </style>
  </defs>
  <g id="share" transform="translate(-0.004 0)">
    <path id="Path_8" data-name="Path 8" class="cls-1" d="M60.4,142.186H7.82A7.823,7.823,0,0,1,0,134.37V93.156A7.822,7.822,0,0,1,7.82,85.34h9.948a2.132,2.132,0,0,1,0,4.263H7.82a3.557,3.557,0,0,0-3.553,3.553V134.37a3.557,3.557,0,0,0,3.553,3.553H60.4a3.558,3.558,0,0,0,3.553-3.553V110.21a2.132,2.132,0,0,1,4.263,0v24.16a7.823,7.823,0,0,1-7.817,7.816Zm0,0" transform="translate(0 -73.969)"/>
    <path id="Path_9" data-name="Path 9" class="cls-1" d="M130.132,45.441a1.877,1.877,0,0,1-.469-.057A2.1,2.1,0,0,1,128,43.347V39.083a27.745,27.745,0,0,1,27.713-27.713h.71V2.133A2.131,2.131,0,0,1,160.093.655L178.568,19.84a2.129,2.129,0,0,1,0,2.956L160.093,41.982a2.131,2.131,0,0,1-3.667-1.478V31.267H153.05A23.317,23.317,0,0,0,132.076,44.23,2.195,2.195,0,0,1,130.132,45.441Zm25.584-29.807a23.488,23.488,0,0,0-23.27,20.521A27.559,27.559,0,0,1,153.05,27h5.508a2.133,2.133,0,0,1,2.132,2.132v6.082l13.384-13.9L160.69,7.419V13.5a2.132,2.132,0,0,1-2.132,2.132Zm0,0" transform="translate(-110.946 0)"/>
  </g>
</svg>
